<svg width="55" height="48" viewBox="0 0 55 48" fill="none" xmlns="http://www.w3.org/2000/svg">
<path d="M52.717 12.1986C50.9666 9.25169 48.5077 6.44852 46.8474 4.97792C43.2229 1.76676 40.1996 1.84497 38.7196 2.17754C38.0979 2.3173 37.5269 2.54772 37.0243 2.85505C34.442 0.938758 31.3005 0 27.5 0C23.6994 0 20.5578 0.938758 17.9756 2.85516C17.4729 2.54783 16.9021 2.3173 16.2803 2.17765C14.8008 1.84518 11.777 1.76687 8.15277 4.97792C6.49236 6.44863 4.03348 9.2518 2.28293 12.1987C-0.0870043 16.1884 -0.614874 19.4159 0.713932 21.7918C2.33643 24.6925 4.79746 25.4348 6.78422 25.6178C6.29588 27.5143 5.99435 29.5432 5.99435 32.0712C5.99435 35.422 6.75705 38.3047 8.26149 40.6394C9.58395 42.692 11.4879 44.3357 13.9204 45.5248C18.4147 47.7216 23.823 47.9757 27.5001 47.9757C31.1771 47.9757 36.5856 47.7216 41.0798 45.5248C43.5121 44.3357 45.4162 42.692 46.7386 40.6394C48.243 38.3046 49.0058 35.4219 49.0058 32.0712C49.0058 29.5433 48.7042 27.5144 48.2159 25.6178C50.2027 25.4347 52.6638 24.6923 54.2862 21.7917C55.6148 19.416 55.0868 16.1884 52.717 12.1986ZM7.82868 22.302C6.07041 22.2558 4.64062 21.9154 3.65224 20.1484C2.98171 18.9495 3.53762 16.6786 5.17762 13.9178C6.73406 11.2974 8.96811 8.75304 10.3852 7.4976C12.7255 5.42393 14.4799 5.30974 15.3053 5.42028C12.8489 8.41477 11.3433 12.3064 10.0842 16.0902C9.56279 17.657 9.06027 18.9947 8.57408 20.2886C8.31412 20.9808 8.06404 21.6466 7.82868 22.302ZM25.3037 33.3396C24.4328 32.4692 23.9771 31.5554 23.9771 31.1028C23.9771 30.6985 24.0463 30.6695 24.3038 30.5611C25.0378 30.2523 26.4794 30.2166 27.5 30.2166C28.5205 30.2166 29.9621 30.2523 30.6961 30.5611C30.9536 30.6694 31.0229 30.6986 31.0229 31.1028C31.0229 31.5554 30.5672 32.4691 29.6962 33.3396C28.8397 34.1955 27.9255 34.6573 27.4998 34.6573C27.0742 34.6573 26.1602 34.1955 25.3037 33.3396ZM39.6013 42.5003C37.0177 43.763 33.5976 44.448 29.1833 44.5836V37.6878C30.505 37.1778 31.5813 36.2153 32.0761 35.7208C32.7717 35.0257 34.3894 33.1841 34.3894 31.1029C34.3894 29.4003 33.5415 28.1059 32.0017 27.4582C30.9754 27.0263 29.6711 26.8501 27.5001 26.8501C25.3291 26.8501 24.0248 27.0263 22.9983 27.4582C21.4587 28.1059 20.6106 29.4002 20.6106 31.1029C20.6106 33.1841 22.2285 35.0256 22.9239 35.7208C23.4187 36.2154 24.4952 37.1779 25.8168 37.6878V44.5836C21.4024 44.4481 17.9823 43.7633 15.3987 42.5003C11.3358 40.5143 9.36073 37.1029 9.36073 32.0712C9.36073 27.7666 10.3527 25.1265 11.7254 21.4725C12.1995 20.2108 12.7366 18.7808 13.2783 17.1531C16.2539 8.21174 19.4015 3.36649 27.5 3.36649C35.5984 3.36649 38.746 8.21185 41.7215 17.1531C42.2631 18.781 42.8005 20.2108 43.2744 21.4725C44.6471 25.1265 45.6391 27.7665 45.6391 32.0712C45.6392 37.1029 43.6641 40.5143 39.6013 42.5003ZM51.3479 20.1484C50.3594 21.9156 48.9296 22.2557 47.1713 22.302C46.9359 21.6465 46.686 20.9808 46.426 20.2886C45.94 18.9948 45.4374 17.657 44.9159 16.0902C43.6568 12.3064 42.1512 8.41477 39.6948 5.42028C40.5202 5.30996 42.2747 5.42393 44.6151 7.49771C46.0322 8.75293 48.2662 11.2972 49.8226 13.9175C51.4625 16.6786 52.0184 18.9496 51.3479 20.1484Z" fill="black"/>
<path d="M21.898 17.8923C20.6801 17.8923 19.689 18.8935 19.689 20.1298C19.689 21.3661 20.68 22.3682 21.898 22.3682C23.1174 22.3682 24.1084 21.366 24.1084 20.1298C24.1084 18.8935 23.1174 17.8923 21.898 17.8923Z" fill="black"/>
<path d="M33.0853 17.8747C31.8557 17.8747 30.8582 18.8844 30.8582 20.1298C30.8582 21.3753 31.8557 22.3849 33.0853 22.3849C34.3136 22.3849 35.311 21.3753 35.311 20.1298C35.3111 18.8844 34.3136 17.8747 33.0853 17.8747Z" fill="black"/>
</svg>
