<svg width="212" height="212" viewBox="0 0 212 212" fill="none" xmlns="http://www.w3.org/2000/svg">
<path d="M106 192.125C58.5112 192.125 19.875 153.489 19.875 106C19.875 58.5112 58.5112 19.875 106 19.875C153.489 19.875 192.125 58.5112 192.125 106C192.125 153.489 153.489 192.125 106 192.125ZM106 33.125C65.8359 33.125 33.125 65.8359 33.125 106C33.125 146.164 65.8359 178.875 106 178.875C146.164 178.875 178.875 146.185 178.875 106C178.875 65.8152 146.185 33.125 106 33.125Z" fill="white"/>
<path d="M134.019 120.906C126.815 120.906 119.854 117.71 114.418 111.909C109.04 106.076 105.825 98.5756 105.308 90.659C104.7 82.0879 107.329 74.2 112.712 68.457C118.095 62.7139 125.618 59.625 134.019 59.625C142.359 59.625 149.907 62.7802 155.273 68.5108C160.64 74.2414 163.335 82.1748 162.726 90.6673C162.2 98.5791 158.986 106.074 153.617 111.909C148.176 117.71 141.22 120.906 134.019 120.906Z" fill="white"/>
<path d="M67.8316 122.297C55.5091 122.297 44.6731 110.907 43.6793 96.903C43.17 89.7314 45.3977 83.1023 49.9606 78.2371C54.5236 73.3718 60.8174 70.7839 67.8274 70.7839C74.8375 70.7839 81.1271 73.4505 85.6611 78.295C90.1951 83.1396 92.4931 89.8143 91.9756 96.9278C90.9652 110.911 80.1334 122.297 67.8316 122.297Z" fill="white"/>
<path d="M174.06 147.108C173.401 145.162 171.799 143.088 168.586 141.121C158.872 135.187 146.922 132.049 134.02 132.049C121.362 132.049 109.081 135.32 99.4331 141.262C88.564 147.957 81.2599 157.721 78.3159 169.492C77.6203 172.263 76.6059 177.418 77.6907 180.304C95.0999 186.924 114.28 187.228 131.89 181.162C149.5 175.096 164.424 163.045 174.064 147.108H174.06Z" fill="white"/>
<path d="M67.753 166.192C70.6804 154.512 76.912 144.773 86.5804 136.897C87.0375 136.52 87.385 136.027 87.5868 135.47C87.7886 134.913 87.8373 134.312 87.7278 133.73C87.6183 133.147 87.3545 132.605 86.9641 132.159C86.5736 131.714 86.0708 131.381 85.5079 131.196C80.5392 129.61 74.8665 128.761 67.8316 128.761C57.9687 128.761 47.497 131.432 39.6174 136.285C37.3815 137.663 35.1869 138.193 33.4976 138.665C40.2802 153.656 51.5283 166.185 65.7033 174.54L66.4445 174.482C66.6066 171.682 67.0449 168.906 67.753 166.192Z" fill="white"/>
</svg>
